<svg width="203" height="176" viewBox="0 0 203 176" xmlns="http://www.w3.org/2000/svg" xmlns:xlink="http://www.w3.org/1999/xlink"><svg width="44" height="44" viewBox="-2 -2 44 44" x="101"><defs><path d="M21.983 23.752c-.021-3.893-3.172-8.719-3.031-13.466.13-4.393 3.575-8.687 3.032-12.874-.952-7.349-4.057-14.19-4.057-14.19L38.48 3.778s-1.937 4.985-2.045 7.195c-.13 2.65 1.877 7.692 1.877 7.692L18.748 38.228s3.26-10.245 3.235-14.476z" id="b"/><filter x="-50%" y="-50%" width="200%" height="200%" filterUnits="objectBoundingBox" id="a"><feOffset dx="-1" in="SourceAlpha" result="shadowOffsetOuter1"/><feGaussianBlur stdDeviation=".5" in="shadowOffsetOuter1" result="shadowBlurOuter1"/><feColorMatrix values="0 0 0 0 0 0 0 0 0 0 0 0 0 0 0 0 0 0 0.3 0" in="shadowBlurOuter1"/></filter></defs><g fill="none" fill-rule="evenodd"><g transform="rotate(45 8.077 18.519)"><use fill="#000" filter="url(#a)" xlink:href="#b"/><use fill="#D66A5A" xlink:href="#b"/></g><text font-family=".PingFang-SC-Regular, PingFang SC" font-size="10" font-weight="400" letter-spacing="1.071" fill="#FFF" transform="rotate(-45 47.945 19.445)"><tspan x="16.924" y="14.5">频道</tspan></text></g></svg><svg width="22" height="22" viewBox="-2 -2 22 22" x="181" y="66"><g transform="translate(1 1)" fill="none" fill-rule="evenodd"><rect fill="#4A4A4A" x="7" width="2" height="11" rx="1"/><path d="M11.5 5.5l-3-4m-4 4l3-4" stroke="#4A4A4A" stroke-width="2" stroke-linecap="round"/><rect fill="#4A4A4A" y="9" width="2" height="6" rx="1"/><rect fill="#4A4A4A" x="14" y="9" width="2" height="6" rx="1"/><rect fill="#4A4A4A" y="13" width="16" height="2" rx="1"/></g></svg><svg width="22" height="22" viewBox="-2 -2 22 22" x="181" y="22"><g transform="translate(0 -1)" fill="none" fill-rule="evenodd"><rect fill="#E35951" y="1" width="18" height="18" rx="2"/><text font-family=".PingFang-SC-Regular, PingFang SC" font-size="14" font-weight="400" fill="#FFF"><tspan x="2" y="15">荐</tspan></text></g></svg><svg width="19" height="17" viewBox="-2 -2 19 17" x="181" y="154"><path d="M15 3.964h-3.862L8.2 0h3.434L15 3.964zm-11.21.703l2.73 7.69L0 4.667h3.79zm6.669 0L7.499 13 4.543 4.667h5.917zm-5.717-.703L7.5.242l2.759 3.722H4.742zm6.468.703H15l-6.52 7.69 2.73-7.69zM3.366 0h3.433L3.862 3.964H.001L3.366 0z" fill="#FFF" fill-rule="evenodd"/></svg><svg width="28" height="28" viewBox="-2 -2 28 28" x="28" y="148"><g transform="translate(3 1)" fill="#FFF" fill-rule="evenodd"><rect width="4" height="23" rx="2"/><rect x="14" width="4" height="23" rx="2"/></g></svg><svg width="28" height="28" viewBox="-2 -2 28 28" x="53" y="48"><path d="M19.904 11.017c1.434.819 1.437 2.145 0 2.966L4.096 23.017c-1.434.819-2.596.141-2.596-1.508V3.49c0-1.652 1.159-2.329 2.596-1.508l15.808 9.034z" fill="#FFF" fill-rule="evenodd"/></svg><svg width="22" height="22" viewBox="-2 -2 22 22" x="158" y="114"><path d="M12.807 2.637c-.124-.054-.39-.361-1.177-.633-1.228-.424-2.552-.516-3.993-.271-1.441.244-2.331 1.243-2.331 1.243.022.03-3.242-1.083-3.647-1.085-.405-.002.092 1.65.092 1.65.604 2.13 1.5 2.963 1.5 2.963-.062.234-.104 1.047-.046 1.56.26 1.74 1.305 2.89 4.017 3.235.348.028.704.044 1.06.053.009.199-.007.575-.068.738-.061.165-.436.659-.554.792-.282.307-.692.972-.692.972-.2.203-.3.86-.3.86-.166.006-.44-.023-.44-.023-1.061-.028-1.618-1.078-1.707-1.29-.09-.21-.101-.324-.3-.27-.2.053-.115.362-.115.362-.011.72.675 1.4 1.315 1.854.64.454 1.362.362 1.362.362.016.11.22.43.3.497.07.158 1.549 1.353 3.208.475 1.66-.878.728-3.487.554-4.003-.165-.491-.493-1.33-.524-1.41 1.506-.164 2.898-.58 3.802-1.394 1.515-1.365.83-3.55.83-3.55s.503-.305.878-1.267c.53-1.323.675-3.514.669-3.731-.006-.218.05-.363-.346-.317-.397.046-3.088 1.486-3.347 1.628z" fill="#CD3333" fill-rule="evenodd"/></svg><svg width="22" height="22" viewBox="-2 -2 22 22" x="181" y="132"><path d="M12.807 2.637c-.124-.054-.39-.361-1.177-.633-1.228-.424-2.552-.516-3.993-.271-1.441.244-2.331 1.243-2.331 1.243.022.03-3.242-1.083-3.647-1.085-.405-.002.092 1.65.092 1.65.604 2.13 1.5 2.963 1.5 2.963-.062.234-.104 1.047-.046 1.56.26 1.74 1.305 2.89 4.017 3.235.348.028.704.044 1.06.053.009.199-.007.575-.068.738-.061.165-.436.659-.554.792-.282.307-.692.972-.692.972-.2.203-.3.86-.3.86-.166.006-.44-.023-.44-.023-1.061-.028-1.618-1.078-1.707-1.29-.09-.21-.101-.324-.3-.27-.2.053-.115.362-.115.362-.011.72.675 1.4 1.315 1.854.64.454 1.362.362 1.362.362.016.11.22.43.3.497.07.158 1.549 1.353 3.208.475 1.66-.878.728-3.487.554-4.003-.165-.491-.493-1.33-.524-1.41 1.506-.164 2.898-.58 3.802-1.394 1.515-1.365.83-3.55.83-3.55s.503-.305.878-1.267c.53-1.323.675-3.514.669-3.731-.006-.218.05-.363-.346-.317-.397.046-3.088 1.486-3.347 1.628z" fill="#FFF" fill-rule="evenodd"/></svg><svg width="28" height="28" viewBox="-2 -2 28 28" x="130" y="114"><g stroke="#CD3333" fill="none" fill-rule="evenodd" stroke-linecap="round"><path d="M9 15v4m-4-4l1 4.02M6 19s.5.5 1.5.5S9 19 9 19m0-4l5.569 1.485c1.066.284 1.931-.38 1.931-1.482V8M9 15H3.99A.99.99 0 0 1 3 13.997V9.003C3 8.449 3.451 8 3.99 8H9"/><path d="M9 8l10.062-3.659c.518-.188.938.109.938.656v11.502c0 1.105-.837 1.666-1.469 1.414"/></g></svg><svg width="28" height="28" viewBox="-2 -2 28 28" y="148"><g stroke="#000" fill="none" fill-rule="evenodd" stroke-linecap="round"><path d="M9 15v4m-4-4l1 4.02M6 19s.5.5 1.5.5S9 19 9 19m0-4l5.569 1.485c1.066.284 1.931-.38 1.931-1.482V8M9 15H3.99A.99.99 0 0 1 3 13.997V9.003C3 8.449 3.451 8 3.99 8H9"/><path d="M9 8l10.062-3.659c.518-.188.938.109.938.656v11.502c0 1.105-.837 1.666-1.469 1.414"/></g></svg><svg width="53" height="15" viewBox="-2 -2 53 15" y="15"><g transform="translate(0 -6)" fill="#E35E4C" fill-rule="evenodd"><text font-family="Arial-Black, Arial Black" font-size="15" font-weight="700" letter-spacing="1.11"><tspan x="9" y="17">L!V</tspan> <tspan x="38.997" y="17">E</tspan></text><circle cx="2.5" cy="11.5" r="2.5"/></g></svg><svg width="53" height="15" viewBox="-2 -2 53 15"><g transform="translate(0 -6)" fill="none" fill-rule="evenodd"><text font-family="Arial-Black, Arial Black" font-size="15" font-weight="700" letter-spacing="1.11"><tspan x="9" y="17" fill="#000">L</tspan> <tspan x="20.115" y="17" fill="#E35E4C">!</tspan> <tspan x="26.22" y="17" fill="#000">V</tspan> <tspan x="38.997" y="17" fill="#000">E</tspan></text><circle fill="#000" cx="2.5" cy="11.5" r="2.5"/></g></svg><svg width="22" height="22" viewBox="-2 -2 22 22" x="181"><g transform="translate(2 3)" fill="none" fill-rule="evenodd"><ellipse stroke="#CD3333" stroke-width="1.4" cx="8.211" cy="3.882" rx="4.105" ry="3.882"/><path d="M8.21 1.664c-1.295 0-2.345.993-2.345 2.218m-3.46 6.489c-1.296 0-2.346-.993-2.346-2.218" stroke="#CD3333" stroke-width="1.4" stroke-linecap="round" stroke-linejoin="round"/><path d="M5.301 7.276a.604.604 0 0 1 .807-.175.539.539 0 0 1 .188.763l-1.867 2.825a.604.604 0 0 1-.807.175.539.539 0 0 1-.187-.763L5.3 7.276z" fill="#CD3333"/></g></svg><svg width="22" height="22" viewBox="-2 -2 22 22" x="181" y="110"><g transform="translate(2 3)" fill="none" fill-rule="evenodd"><ellipse stroke="#000" stroke-width="1.4" cx="8.211" cy="3.882" rx="4.105" ry="3.882"/><path d="M8.21 1.664c-1.295 0-2.345.993-2.345 2.218m-3.46 6.489c-1.296 0-2.346-.993-2.346-2.218" stroke="#000" stroke-width="1.4" stroke-linecap="round" stroke-linejoin="round"/><path d="M5.301 7.276a.604.604 0 0 1 .807-.175.539.539 0 0 1 .188.763l-1.867 2.825a.604.604 0 0 1-.807.175.539.539 0 0 1-.187-.763L5.3 7.276z" fill="#000"/></g></svg><svg width="22" height="22" viewBox="-2 -2 22 22" x="181" y="88"><path d="M6.57 2.25h5.12M2.26 3.844h13.675m-11.666 2v8.58c0 .491.412.888.92.888h7.914c.508 0 .92-.397.92-.887V5.844m-6.513.437v6.907m3.3-6.907v6.907" stroke="#BF4A3F" fill="none" fill-rule="evenodd" stroke-linecap="round"/></svg><svg width="36" height="36" viewBox="-2 -2 36 36" x="72" y="78"><defs><circle id="c" cx="15" cy="15" r="15"/><mask id="d" x="0" y="0" width="30" height="30" fill="#fff"><use xlink:href="#c"/></mask></defs><g transform="translate(1 1)" fill="none" fill-rule="evenodd"><use stroke="#FFF" mask="url(#d)" stroke-width="4" xlink:href="#c"/><path d="M18.072 15.246l2.832-2.833A1.998 1.998 0 0 0 20.9 9.59a1.992 1.992 0 0 0-2.824-.004l-2.833 2.832-2.832-2.832a1.992 1.992 0 0 0-2.824.004 1.998 1.998 0 0 0-.005 2.824l2.833 2.833-2.833 2.833a1.998 1.998 0 0 0 .005 2.824 1.992 1.992 0 0 0 2.824.004l2.832-2.833 2.833 2.833a1.992 1.992 0 0 0 2.824-.004 1.998 1.998 0 0 0 .004-2.824l-2.832-2.833z" fill="#FFF"/></g></svg><svg width="36" height="36" viewBox="-2 -2 36 36" y="78"><g fill="#FFF" fill-rule="evenodd"><path d="M14 3h4v10h-4zM1 20h2v9H1zm28 0h2v9h-2z"/><path d="M1 27h30v2H1zm15-5l7-9H9z"/></g></svg><svg width="48" height="48" viewBox="-2 -2 48 48" y="30"><g transform="matrix(-1 0 0 1 35 -1)" fill="#FFF" fill-rule="evenodd"><rect transform="rotate(45 13.581 13.581)" x="10.581" y="-1.919" width="6" height="31" rx="3"/><rect transform="scale(1 -1) rotate(45 89.826 0)" x="10.581" y="16.081" width="6" height="31" rx="3"/></g></svg><svg width="48" height="48" viewBox="-2 -2 48 48" x="53"><g transform="translate(9 -1)" fill="#FFF" fill-rule="evenodd"><rect transform="rotate(45 13.581 13.581)" x="10.581" y="-1.919" width="6" height="31" rx="3"/><rect transform="scale(1 -1) rotate(45 89.826 0)" x="10.581" y="16.081" width="6" height="31" rx="3"/></g></svg><svg width="36" height="36" viewBox="-2 -2 36 36" x="145" y="36"><defs><path d="M13.707 2.45c1.267-2.457 3.318-2.46 4.586 0l12.414 24.1c1.267 2.457.062 4.45-2.706 4.45H4c-2.761 0-3.974-1.99-2.706-4.45l12.414-24.1z" id="e"/><mask id="f" x="0" y="0" width="30.42" height="30.394" fill="#fff"><use xlink:href="#e"/></mask></defs><g fill="none" fill-rule="evenodd"><use stroke="#FFF" mask="url(#f)" stroke-width="4" xlink:href="#e"/><path fill="#FFF" d="M14 10h4v11h-4zm0 13h4v4h-4z"/></g></svg><svg width="22" height="22" viewBox="-2 -2 22 22" x="181" y="44"><g transform="translate(2 5)" fill="none" fill-rule="evenodd"><path d="M11.819 5.492l1.668 1.447c.232.201.413.117.413-.18v-4.76c0-.289-.185-.38-.413-.182l-1.795 1.557C10.608 2.238 8.755.587 6.79.122 3.704-.608.9 2.082.9 4.5s2.804 5.108 5.89 4.378c2.044-.483 3.966-2.25 5.029-3.386z" fill="#A1A1A1"/><circle fill="#FFF" cx="4" cy="4.5" r="1"/></g></svg><svg width="34" height="34" viewBox="-2 -2 34 34" x="68" y="114"><path d="M22.993 13.852c0-.497-.45-1.993-2.118-1.993-1.67 0-1.894 1.412-1.894 2.41 0 .953.088 2.284 2.163 2.241 2.076-.042 1.849-2.158 1.849-2.658zm-4.013 7.684h-2.835c-1.098-.26-1.15-.977-1.15-.977v-2.878l1.15-.017v2.587c.07.276.443.326.443.326h1.168V17.68h1.224v3.855zm-4.588.015h-2.464c-1.063-.194-1.487-.86-1.54-.974-.053-.116-.355-.652-.195-1.563.46-1.365 1.77-1.463 1.77-1.463h1.312v-1.48l1.117.016v5.464zm6.483-3.337s-2.164-1.537-3.428-3.199c-1.712-2.45-4.146-1.453-4.96-.207-.81 1.246-2.073 2.034-2.252 2.243-.182.205-2.615 1.41-2.075 3.613.54 2.2 2.437 2.158 2.437 2.158s1.398.126 3.02-.207a6.911 6.911 0 0 1 3.018.083s3.789 1.164 4.826-1.078c1.035-2.243-.586-3.406-.586-3.406zm-3.428-6.106c1.4.167 2.299-1.204 2.477-2.243.183-1.037-.72-2.242-1.71-2.45-.993-.208-2.232 1.251-2.345 2.203-.134 1.163.182 2.325 1.578 2.49zm-4.508-.164c1.047 0 1.893-1.105 1.893-2.473 0-1.365-.846-2.471-1.893-2.471-1.044 0-1.893 1.106-1.893 2.471 0 1.368.849 2.473 1.893 2.473zm-1.505 7.103c-.055.146-.18.52-.072.846.212.73.902.763.902.763h.993v-2.227h-1.063c-.478.13-.708.472-.76.618zm-2.012-3.616c1.895-.374 1.637-2.453 1.58-2.907-.093-.701-.99-1.925-2.21-1.829-1.533.127-1.757 2.16-1.757 2.16-.207.941.496 2.95 2.387 2.576z" fill="#FFF" fill-rule="evenodd"/></svg><svg width="36" height="36" viewBox="-2 -2 36 36" x="145" y="72"><path d="M25.99 14.565c0-.621-.561-2.492-2.646-2.492-2.089 0-2.368 1.766-2.368 3.014 0 1.19.11 2.854 2.704 2.8 2.595-.052 2.31-2.697 2.31-3.322zm-5.015 9.605H17.43c-1.373-.325-1.437-1.22-1.437-1.22v-3.598l1.437-.022v3.234c.088.344.554.407.554.407h1.46v-3.62h1.53v4.819zm-5.735.02h-3.08c-1.33-.244-1.859-1.077-1.926-1.22-.065-.143-.442-.813-.243-1.952.575-1.707 2.214-1.83 2.214-1.83h1.639v-1.85l1.396.02v6.831zm8.104-4.172s-2.706-1.922-4.285-3.999c-2.14-3.062-5.182-1.816-6.2-.259-1.013 1.558-2.591 2.542-2.815 2.803-.228.257-3.269 1.764-2.594 4.517.676 2.75 3.046 2.697 3.046 2.697s1.747.158 3.774-.258c2.028-.413 3.773.103 3.773.103s4.737 1.456 6.033-1.347c1.295-2.803-.732-4.257-.732-4.257zm-4.285-7.633c1.749.208 2.873-1.505 3.096-2.803.229-1.297-.9-2.803-2.138-3.062-1.24-.261-2.79 1.563-2.93 2.752-.169 1.454.227 2.907 1.972 3.113zm-5.635-.204c1.309 0 2.366-1.383 2.366-3.092C15.79 7.382 14.733 6 13.424 6c-1.306 0-2.367 1.382-2.367 3.09s1.061 3.09 2.367 3.09zm-1.881 8.878c-.07.183-.224.65-.09 1.057a1.292 1.292 0 0 0 1.127.954h1.241v-2.784h-1.328c-.598.164-.885.59-.95.773zm-2.516-4.52c2.37-.467 2.047-3.066 1.976-3.634-.117-.876-1.238-2.406-2.762-2.286-1.917.158-2.197 2.7-2.197 2.7-.26 1.176.62 3.687 2.983 3.22z" fill="#FFF" fill-rule="evenodd"/></svg><svg width="34" height="34" viewBox="-2 -2 34 34" y="114"><path d="M15 20.9s-5.235 3.343-5.559 3.07c-.323-.274 1.062-6.502 1.062-6.502s-4.69-4.1-4.497-4.604c.192-.504 6.215-.949 6.215-.949S14.46 6 15.001 6c.542 0 2.78 5.915 2.78 5.915s6.048.448 6.215.949c.166.5-4.498 4.604-4.498 4.604s.058.398.125.695c.005.02-2.177.072-3.964 0-.94-.038-2.07-.22-2.07-.22l5.176-3.877s-1.872-.354-3.764-.425c-2.073-.077-4.195.132-4.498.213-.19.05 1.34.047 3.086.212 1.222.116 2.83.425 2.83.425l-5.175 4.046s2.216.142 4.205.128c2.238-.015 4.258-.308 4.27-.252.39 1.771 1.108 5.27.84 5.557-.363.388-5.558-3.07-5.558-3.07z" fill="#FFF" fill-rule="evenodd"/></svg><svg width="36" height="36" viewBox="-2 -2 36 36" x="145"><path d="M16 23.211s-6.398 4.085-6.794 3.752c-.395-.334 1.298-7.946 1.298-7.946s-5.731-5.012-5.497-5.628c.235-.616 7.597-1.16 7.597-1.16S15.339 5 16 5c.662 0 3.397 7.23 3.397 7.23s7.393.547 7.597 1.159c.203.612-5.497 5.628-5.497 5.628s.07.486.153.849c.005.024-2.66.088-4.846 0-1.148-.046-2.53-.27-2.53-.27l6.327-4.737s-2.288-.433-4.601-.52c-2.533-.094-5.127.161-5.497.26-.233.062 1.638.057 3.772.26 1.493.141 3.46.519 3.46.519l-6.327 4.946s2.71.172 5.14.156c2.735-.02 5.203-.377 5.219-.308.476 2.164 1.354 6.442 1.027 6.79-.445.476-6.794-3.75-6.794-3.75z" fill="#FFF" fill-rule="evenodd"/></svg><svg width="34" height="34" viewBox="-2 -2 34 34" x="101" y="44"><path d="M14.043 23c4.442 0 8.008-2.396 8.008-5.35 0-2.497-3.032-2.497-3.032-2.658 0-.162 1.51-1.612 0-2.514-1.51-.903-4.27.47-4.188.322 1.188-2.107-.51-2.772-1.375-2.772-2.063 0-7.456 4.666-7.456 7.621S9.601 23 14.043 23zm.225-1.64c2.837-.398 4.921-2.263 4.654-4.165-.267-1.903-2.785-3.121-5.623-2.722-2.837.398-4.921 2.264-4.654 4.166.267 1.902 2.785 3.12 5.623 2.722zm-.524-.517c1.688-.328 2.827-1.77 2.546-3.22-.282-1.451-1.88-2.36-3.567-2.033-1.688.328-2.828 1.77-2.546 3.22.282 1.451 1.879 2.36 3.567 2.033zm.04-2.659c.286 0 .518-.24.518-.535a.527.527 0 0 0-.518-.535.527.527 0 0 0-.52.535c0 .296.233.535.52.535zm-1.187 1.22c.52-.241.789-.763.602-1.165-.188-.402-.76-.531-1.28-.289-.52.242-.789.764-.602 1.166.188.402.76.531 1.28.289zm8.392-8.216c-.938-.87-2.021-.565-2.021-.565a.613.613 0 0 0-.514.602v-.15c0 .294.228.517.524.515 0 0 .885-.144 1.385.469.5.612.144 1.453.144 1.453-.08.283.088.513.39.513h.026c.295 0 .58-.234.62-.527 0 0 .383-1.44-.554-2.31zm1.75-1.74c-1.72-1.676-4.001-1.435-4.001-1.435a.809.809 0 0 0-.803.803V8.65a.78.78 0 0 0 .791.782s2.2-.264 3.231 1.262c1.032 1.527.608 3.222.608 3.222a.678.678 0 0 0 .693.786h-.225a.906.906 0 0 0 .887-.802s.538-2.775-1.181-4.451z" fill="#FFF" fill-rule="evenodd"/></svg><svg width="36" height="36" viewBox="-2 -2 36 36" x="36" y="78"><path d="M15.277 26c5.676 0 10.233-3.034 10.233-6.778 0-3.162-3.874-3.162-3.874-3.366 0-.204 1.93-2.041 0-3.184-1.93-1.144-5.458.594-5.352.408 1.518-2.669-.651-3.511-1.757-3.511-2.636 0-9.527 5.91-9.527 9.653C5 22.966 9.601 26 15.277 26zm.282-2.076c3.626-.51 6.291-2.876 5.952-5.286-.338-2.409-3.552-3.949-7.179-3.44-3.626.51-6.29 2.877-5.952 5.286.338 2.41 3.552 3.95 7.179 3.44zm-.67-.657c2.157-.419 3.616-2.248 3.259-4.085-.357-1.837-2.395-2.987-4.552-2.568-2.157.42-3.616 2.249-3.259 4.086.358 1.837 2.395 2.987 4.552 2.567zm.057-3.367a.67.67 0 0 0 .663-.678.67.67 0 0 0-.663-.677.67.67 0 0 0-.663.677.67.67 0 0 0 .663.678zm-1.52 1.546c.664-.31 1.01-.973.772-1.482-.237-.509-.967-.67-1.631-.36-.664.309-1.01.972-.772 1.481.237.509.967.67 1.631.361zM24.152 11.04c-1.198-1.103-2.57-.717-2.57-.717a.798.798 0 0 0-.67.776v-.216c0 .38.31.667.671.665 0 0 1.131-.182 1.77.594.64.776.183 1.841.183 1.841-.1.359.114.65.5.65h.033c.377 0 .74-.297.791-.668 0 0 .49-1.823-.708-2.925zm2.237-2.205c-2.197-2.123-5.124-1.818-5.124-1.818a1.023 1.023 0 0 0-1.015 1.018v-.212c0 .56.45.99 1.011.99 0 0 2.811-.334 4.13 1.6 1.317 1.933.777 4.06.777 4.06a.87.87 0 0 0 .883 1.017h-.287c.565 0 1.084-.45 1.134-1.017 0 0 .687-3.515-1.51-5.638z" fill="#FFF" fill-rule="evenodd"/></svg><svg width="34" height="34" viewBox="-2 -2 34 34" x="34" y="114"><path d="M18.91 12.659c2.833.113 5.09 2.109 5.09 4.555 0 1.519-.87 2.865-2.209 3.693-.252.156.546 1.473.264 1.59-.175.072-1.42-1.042-1.605-.986-.56.17-1.164.263-1.794.263-2.302 0-4.265-1.243-5.016-2.985a7.372 7.372 0 0 1-3.44-.267c-.354-.116-1.651 1.266-1.973 1.099-.192-.1.579-1.735.4-1.85C7.033 16.733 6 15.068 6 13.19c0-3.142 2.896-5.69 6.469-5.69 3.368 0 6.136 2.265 6.44 5.159zm-1.129.056c-.288-2.288-2.557-4.07-5.312-4.07-2.952 0-5.344 2.044-5.344 4.564 0 1.437.777 2.82 1.992 3.656.064.044.383.193.362.406-.046.466-.182.786-.182.786s.374-.439.653-.65c.124-.094.353-.024.417 0a6.118 6.118 0 0 0 2.102.366c.298 0 .59-.02.875-.06a3.942 3.942 0 0 1-.031-.499c0-2.264 1.933-4.143 4.468-4.5zm-7.562-.634a.851.851 0 0 1-.844-.859c0-.474.378-.859.844-.859.466 0 .844.385.844.86a.851.851 0 0 1-.844.858zm4.5 0a.851.851 0 0 1-.844-.859c0-.474.378-.859.844-.859.466 0 .844.385.844.86a.851.851 0 0 1-.844.858zm5.344 4.009c.31 0 .562-.257.562-.573a.568.568 0 0 0-.563-.572.568.568 0 0 0-.562.572c0 .316.252.573.563.573zm-3.375 0c.31 0 .562-.257.562-.573a.568.568 0 0 0-.563-.572.568.568 0 0 0-.562.572c0 .316.252.573.563.573z" fill="#FFF" fill-rule="evenodd"/></svg><svg width="36" height="36" viewBox="-2 -2 36 36" x="108" y="78"><path d="M14.338 20.547a9.173 9.173 0 0 1-4.204-.32c-.434-.14-2.019 1.519-2.413 1.318-.234-.12.708-2.081.49-2.22C6.263 18.08 5 16.081 5 13.828 5 10.058 8.54 7 12.906 7c4.117 0 7.5 2.718 7.872 6.19 3.464.136 6.222 2.532 6.222 5.467 0 1.823-1.064 3.437-2.7 4.432-.308.187.668 1.766.322 1.907-.213.087-1.736-1.25-1.96-1.183a7.665 7.665 0 0 1-2.193.316c-2.814 0-5.213-1.491-6.131-3.582zm-.362-1.292a7.816 7.816 0 0 1-1.07.073c-.912 0-1.78-.157-2.568-.44-.079-.028-.359-.112-.51 0-.342.254-.799.78-.799.78s.167-.383.224-.943c.025-.255-.365-.435-.443-.487-1.485-1.004-2.435-2.663-2.435-4.387 0-3.025 2.924-5.477 6.531-5.477 3.368 0 6.14 2.138 6.494 4.884-3.099.427-5.462 2.682-5.462 5.399 0 .202.013.401.038.598zm-3.82-6.758a1.031 1.031 0 1 0 0-2.062 1.031 1.031 0 0 0 0 2.062zm5.5 0a1.031 1.031 0 1 0 0-2.062 1.031 1.031 0 0 0 0 2.062zm6.531 4.81a.687.687 0 1 0 0-1.374.687.687 0 0 0 0 1.375zm-4.125 0a.687.687 0 1 0 0-1.374.687.687 0 0 0 0 1.375z" fill="#FFF" fill-rule="evenodd"/></svg><svg width="24" height="24" viewBox="-2 -2 24 24" x="84" y="148"><g fill="#FFF" fill-rule="evenodd"><path d="M18.995 14.517c0-.014 0-.028-.002-.04v-.006c-.002-.012-.002-.024-.006-.034l-.004-.02a.465.465 0 0 0-.13-.237l-.013-.01-1.434-1.438a.484.484 0 0 0-.68 0 .484.484 0 0 0 0 .68l.624.625h-3.496a.483.483 0 0 0-.482.482c0 .265.216.482.482.482h3.496l-.625.625a.484.484 0 0 0 0 .68.484.484 0 0 0 .681 0l1.436-1.435.012-.01a.483.483 0 0 0 .125-.217l.006-.02.004-.02.006-.034v-.006c.002-.015.002-.029.002-.04l-.002-.007c0 .002 0 .002 0 0 0 .002 0 .002 0 0 0 .002 0 .002 0 0zm-5.427-4.694c.265 0 .432-.235.432-.5s-.167-.5-.432-.5H10.5v-.5l1.926-2.002a.484.484 0 0 0 0-.68.484.484 0 0 0-.681 0L9.997 7.322 8.25 5.64a.484.484 0 0 0-.68 0 .484.484 0 0 0 0 .681L9.5 8.323v.5H6.427c-.265 0-.427.235-.427.5s.162.5.427.5H9.5v1H7.427c-.265 0-.427.235-.427.5s.162.5.427.5H9.5v1.9a.5.5 0 0 0 .497.485c.266 0 .503-.22.503-.485v-1.9h2.068c.265 0 .432-.235.432-.5s-.167-.5-.432-.5H10.5v-1h3.068z"/><path d="M14.394 16.833c-.1 0-.195.03-.273.084a8.034 8.034 0 1 1 3.828-5.742.482.482 0 0 0 .958.1A8.998 8.998 0 0 0 9.996 1.026 8.995 8.995 0 0 0 1 10.021a8.998 8.998 0 0 0 13.617 7.722v-.002a.482.482 0 0 0 .26-.428.483.483 0 0 0-.483-.48"/></g></svg><svg width="24" height="24" viewBox="-2 -2 24 24" x="108" y="148"><g transform="translate(2 3)" fill="none" fill-rule="evenodd"><circle fill="#FFF" cx="8" cy="7" r="2"/><path d="M5 11a4.992 4.992 0 0 1-2-4c0-1.636.786-3.088 2-4m6 0c1.214.912 2 2.364 2 4a4.992 4.992 0 0 1-2 4m0-8" stroke="#FFF" stroke-linecap="round"/><path d="M4 13.93A7.997 7.997 0 0 1 0 7 7.997 7.997 0 0 1 4 .07m8 0A7.997 7.997 0 0 1 16 7a7.997 7.997 0 0 1-4 6.93M12 .07" stroke="#FFF" stroke-linecap="round"/></g></svg><svg width="24" height="24" viewBox="-2 -2 24 24" x="132" y="148"><g fill="none" fill-rule="evenodd"><path d="M9.5 11.75H7.003a.507.507 0 0 1-.503-.5c0-.277.233-.5.503-.5h2.032L7.658 8.781a.5.5 0 0 1 .128-.69.492.492 0 0 1 .69.116l1.519 2.168 1.518-2.168a.5.5 0 0 1 .69-.115.492.492 0 0 1 .13.689l-1.38 1.968h2.043c.278 0 .503.232.503.5 0 .276-.233.5-.503.5H10.5v1h1.502c.275 0 .498.232.498.5 0 .276-.215.5-.498.5H10.5v1.502a.504.504 0 0 1-.5.498.494.494 0 0 1-.5-.498V13.75H7.998a.504.504 0 0 1-.498-.5c0-.276.215-.5.498-.5H9.5v-1z" fill="#FFF"/><path d="M7.536 5.525S1.1 9.027 2.106 13.567C3.114 18.107 9.203 18 10.197 18c.993 0 6.505-.154 7.667-4.456 1.162-4.303-5.466-8.019-5.466-8.019s1.67-.72 1.67-1.732C14.067 2.783 12.316 2 10.001 2c-2.314 0-3.95.845-3.68 1.861.268 1.016 1.215 1.664 1.215 1.664z" stroke="#FFF"/></g></svg><svg width="24" height="24" viewBox="-2 -2 24 24" x="156" y="148"><g fill="none" fill-rule="evenodd"><path d="M2.5 8.5h2v6h-2v-6z" stroke="#FFF"/><path fill="#FFF" d="M2 17h15v1H2z"/><path d="M8.5 2.5h2v12h-2v-12zm6 3h2v9h-2z" stroke="#FFF"/></g></svg><svg width="28" height="28" viewBox="-2 -2 28 28" x="102" y="114"><g transform="translate(5 5)" fill="none" fill-rule="evenodd"><rect stroke="#212121" stroke-width="1.2" width="15" height="14" rx="2.816"/><path fill="#212121" d="M10.263 12.353l2.369-3.294H7.895z"/></g></svg><svg width="28" height="28" viewBox="-2 -2 28 28" x="56" y="148"><g transform="translate(5 5)" fill="none" fill-rule="evenodd"><rect stroke="#212121" stroke-width="1.2" width="15" height="14" rx="2.816"/><path d="M4.141 2.817c0-.23.18-.417.424-.417h.447c.234 0 .423.183.423.417V3.3c0 .23-.18.417-.423.417h-.447A.418.418 0 0 1 4.14 3.3v-.484zm1.941 0c0-.23.194-.417.42-.417h4.985c.231 0 .419.183.419.417V3.3c0 .23-.194.417-.419.417H6.501a.416.416 0 0 1-.419-.417v-.484zM5.435 6.77c0-.23.18-.417.424-.417h.447c.234 0 .423.183.423.417v.484c0 .23-.18.417-.423.417h-.447a.418.418 0 0 1-.424-.417V6.77zm1.941 0c0-.23.194-.417.42-.417h4.985c.231 0 .419.183.419.417v.484c0 .23-.194.417-.419.417H7.795a.416.416 0 0 1-.419-.417V6.77zM2.2 10.723c0-.23.18-.417.424-.417h.446c.234 0 .424.183.424.417v.484c0 .23-.18.417-.424.417h-.446a.418.418 0 0 1-.424-.417v-.484zm1.941 0c0-.23.194-.417.419-.417h4.986c.231 0 .419.183.419.417v.484c0 .23-.194.417-.42.417H4.56a.416.416 0 0 1-.419-.417v-.484z" fill="#212121"/></g></svg></svg>